# xmcd
#
# Track frame offsets:
#	150
#	12168
#	21711
#	32169
#	44728
#	58374
#	69852
#	82249
#	94406
#	106806
#	118387
#	130112
#	142137
#	145087
#	152822
#	163939
#	174862
#	187017
#	200136
#	211333
#	222883
#	233409
#	243015
#	257049
#	267339
#	279323
#
# Disc length: 3860
#
# Revision: 1
# Processed by: cddbd v1.5.1PL0 Copyright (c) Steve Scherf et al.
# Submitted via: EasyCDDAExtractor 4.6.0.1
# Normalized: r0:DSETVAR1,TDELIM( - )
#
DISCID=8f0f121a
DTITLE=Various Artist - Thirty Years Of COUNTRY MUSIC
DYEAR=1972
DGENRE=Country
TTITLE0=TEX WILLIAMS - Smoke! Smoke! Smoke! (That Cigarette)
TTITLE1=MARGARET WHITLING, JIMMY WAKELY - Slipping Around
TTITLE2=MERLE TRAVIS - Divorse Me C. O. D.
TTITLE3=AL DEXTER - Pistol Packin' Mama
TTITLE4=TENNESSE ERNIE FORD - Mule Train
TTITLE5=JIMMIE DAVIS - You Are My Sunshine
TTITLE6=JIMMY WAKELY - One Has My Heart, The other Has My Name
TTITLE7=LEON PAYNE - I Love You Because
TTITLE8=JACK GUTHRIE - Oklahoma Hills
TTITLE9=TENNESSE ERNIE FORD - Sixteens Tons
TTITLE10=JEAN SHEPHERD - A Satisfied Mind
TTITLE11=HANK THOMPSON - The Wild Side Of Life
TTITLE12=FREDDIE HART - Loose Talk (Part 1)
TTITLE13=FREDDIE HART - Lose Talk (Conclusion)
TTITLE14=SONNY JAMES - Young Love
TTITLE15=TOMMY COLLINS - You Better Not Do That
TTITLE16=SKEETS McDONALD - Don't Let The Stars Get In Your Eyes
TTITLE17=GLEN CAMPBELL - Gentle On My Mind
TTITLE18=WYNN STEWART - It's Such A Pretty world Today
TTITLE19=WANDA JACKSON - Right Or Wrong
TTITLE20=FARON YOUNG - Hello Walls
TTITLE21=BUCK OWENS - I' ve Got A Tiger By The Tail
TTITLE22=TEX RITTER - I Dreamed Of A Hill-Billy Heaven
TTITLE23=MERLE HAGGARD - Today I Started Loving You Again
TTITLE24=ROY CLARK - The Tip Of My Fingers
TTITLE25=FERLIN HUSKY - Wings Of A Dove
EXTD=
EXTT0=
EXTT1=
EXTT2=
EXTT3=
EXTT4=
EXTT5=
EXTT6=
EXTT7=
EXTT8=
EXTT9=
EXTT10=
EXTT11=
EXTT12=
EXTT13=
EXTT14=
EXTT15=
EXTT16=
EXTT17=
EXTT18=
EXTT19=
EXTT20=
EXTT21=
EXTT22=
EXTT23=
EXTT24=
EXTT25=
PLAYORDER=
